<svg xmlns="http://www.w3.org/2000/svg" xmlns:xlink="http://www.w3.org/1999/xlink" version="1.1" data-diagram-type="ACTIVITY" style="width:804px;height:1304px;background:#FFFFFF;" width="804.6875px" height="1304.6875px" viewBox="0 0 804 1304" zoomAndPan="magnify" preserveAspectRatio="none" contentStyleType="text/css"><?plantuml 1.2026.7beta3?><defs/><g><g class="title" data-source-line="20"><text x="224.6567" y="51.5549" fill="#000000" font-size="21.875" lengthAdjust="spacing" textLength="353.3325" font-weight="700" font-family="'Courier New'">CUDA ISP Pipeline Flowchart</text></g><rect x="20.3125" y="78.5889" width="757.3334" height="26.001" fill="#FFFFCC" style="stroke:#FFDD88;stroke-width:4.6875;" rx="3.9063" ry="3.9063"/><text x="31.25" y="95.2148" fill="#000000" font-size="15.625" lengthAdjust="spacing" textLength="555.0156" font-family="monospace">Please use '!option handwritten true' to enable handwritten</text><ellipse cx="236.8286" cy="131.1523" rx="15.625" ry="15.625" fill="#222222" style="stroke:#222222;stroke-width:1.5625;"/><rect x="63.1363" y="162.4023" width="711.3846" height="495.1294" fill="none" style="stroke:#000000;stroke-width:2.3438;"/><path d="M359.996,162.4023 L359.996,176.9287 L344.371,192.5537 L63.1363,192.5537" style="stroke:#000000;stroke-width:2.3438;" fill="none"/><text x="67.8238" y="184.2697" fill="#000000" font-size="21.875" lengthAdjust="spacing" textLength="281.2347" font-family="'Courier New'">RAW Domain (Bayer CFA)</text><path d="M372.3816,218.8843 L372.3816,244.0918 L341.1316,250.3418 L372.3816,256.5918 L372.3816,281.7993 A0,0 0 0 0 372.3816,281.7993 L642.3286,281.7993 A0,0 0 0 0 642.3286,281.7993 L642.3286,234.5093 L626.7036,218.8843 L372.3816,218.8843 A0,0 0 0 0 372.3816,218.8843" style="stroke:#181818;stroke-width:0.7813;" fill="#FEFFDD"/><path d="M626.7036,218.8843 L626.7036,234.5093 L642.3286,234.5093 L626.7036,218.8843" style="stroke:#181818;stroke-width:0.7813;" fill="#FEFFDD"/><text x="381.7566" y="245.5513" fill="#000000" font-size="20.3125" lengthAdjust="spacing" textLength="221.2654" font-family="'Courier New'">Unpacks packed RAW</text><text x="381.7566" y="269.1963" fill="#000000" font-size="20.3125" lengthAdjust="spacing" textLength="237.1346" font-family="'Courier New'">(e.g., MIPI10 -> uint16)</text><rect x="132.5256" y="223.8037" width="208.606" height="53.0762" fill="#F1F1F1" style="stroke:#181818;stroke-width:0.7813;" rx="19.5313" ry="19.5313"/><text x="148.1506" y="256.8329" fill="#000000" font-size="18.75" lengthAdjust="spacing" textLength="177.356" font-family="'Courier New'">RawUnpack«RAW»</text><path d="M416.5192,308.1299 L416.5192,333.3374 L385.2692,339.5874 L416.5192,345.8374 L416.5192,371.0449 A0,0 0 0 0 416.5192,371.0449 L657.0984,371.0449 A0,0 0 0 0 657.0984,371.0449 L657.0984,323.7549 L641.4734,308.1299 L416.5192,308.1299 A0,0 0 0 0 416.5192,308.1299" style="stroke:#181818;stroke-width:0.7813;" fill="#FEFFDD"/><path d="M641.4734,308.1299 L641.4734,323.7549 L657.0984,323.7549 L641.4734,308.1299" style="stroke:#181818;stroke-width:0.7813;" fill="#FEFFDD"/><text x="425.8942" y="334.7969" fill="#000000" font-size="20.3125" lengthAdjust="spacing" textLength="207.7667" font-family="'Courier New'">Baseline subtraction</text><text x="425.8942" y="358.4419" fill="#000000" font-size="20.3125" lengthAdjust="spacing" textLength="124.0173" font-family="'Courier New'">(clamp to 0)</text><rect x="88.3881" y="313.0493" width="296.8811" height="53.0762" fill="#F1F1F1" style="stroke:#181818;stroke-width:0.7813;" rx="19.5313" ry="19.5313"/><text x="104.0131" y="346.0785" fill="#000000" font-size="18.75" lengthAdjust="spacing" textLength="265.6311" font-family="'Courier New'">BlackLevelCorrection«RAW»</text><path d="M413.1042,397.3755 L413.1042,422.583 L381.8542,428.833 L413.1042,435.083 L413.1042,460.2905 A0,0 0 0 0 413.1042,460.2905 L758.8959,460.2905 A0,0 0 0 0 758.8959,460.2905 L758.8959,413.0005 L743.2709,397.3755 L413.1042,397.3755 A0,0 0 0 0 413.1042,397.3755" style="stroke:#181818;stroke-width:0.7813;" fill="#FEFFDD"/><path d="M743.2709,397.3755 L743.2709,413.0005 L758.8959,413.0005 L743.2709,397.3755" style="stroke:#181818;stroke-width:0.7813;" fill="#FEFFDD"/><text x="422.4792" y="424.0425" fill="#000000" font-size="20.3125" lengthAdjust="spacing" textLength="256.9611" font-family="'Courier New'">Removes hot/dead pixels</text><text x="422.4792" y="447.6875" fill="#000000" font-size="20.3125" lengthAdjust="spacing" textLength="312.9791" font-family="'Courier New'">using homogeneous neighbors</text><rect x="91.803" y="402.2949" width="290.0513" height="53.0762" fill="#F1F1F1" style="stroke:#181818;stroke-width:0.7813;" rx="19.5313" ry="19.5313"/><text x="107.428" y="435.3241" fill="#000000" font-size="18.75" lengthAdjust="spacing" textLength="258.8013" font-family="'Courier New'">DeadPixelCorrection«RAW»</text><path d="M426.1459,486.6211 L426.1459,511.8286 L394.8959,518.0786 L426.1459,524.3286 L426.1459,549.5361 A0,0 0 0 0 426.1459,549.5361 L755.4733,549.5361 A0,0 0 0 0 755.4733,549.5361 L755.4733,502.2461 L739.8483,486.6211 L426.1459,486.6211 A0,0 0 0 0 426.1459,486.6211" style="stroke:#181818;stroke-width:0.7813;" fill="#FEFFDD"/><path d="M739.8483,486.6211 L739.8483,502.2461 L755.4733,502.2461 L739.8483,486.6211" style="stroke:#181818;stroke-width:0.7813;" fill="#FEFFDD"/><text x="435.5209" y="513.2881" fill="#000000" font-size="20.3125" lengthAdjust="spacing" textLength="296.5149" font-family="'Courier New'">Compensates lens vignetting</text><text x="435.5209" y="536.9331" fill="#000000" font-size="20.3125" lengthAdjust="spacing" textLength="146.1548" font-family="'Courier New'">using grid LUT</text><rect x="78.7613" y="491.5405" width="316.1346" height="53.0762" fill="#F1F1F1" style="stroke:#181818;stroke-width:0.7813;" rx="19.5313" ry="19.5313"/><text x="94.3863" y="524.5697" fill="#000000" font-size="18.75" lengthAdjust="spacing" textLength="284.8846" font-family="'Courier New'">LensShadingCorrection«RAW»</text><path d="M382.0221,575.8667 L382.0221,601.0742 L350.7721,607.3242 L382.0221,613.5742 L382.0221,638.7817 A0,0 0 0 0 382.0221,638.7817 L699.765,638.7817 A0,0 0 0 0 699.765,638.7817 L699.765,591.4917 L684.14,575.8667 L382.0221,575.8667 A0,0 0 0 0 382.0221,575.8667" style="stroke:#181818;stroke-width:0.7813;" fill="#FEFFDD"/><path d="M684.14,575.8667 L684.14,591.4917 L699.765,591.4917 L684.14,575.8667" style="stroke:#181818;stroke-width:0.7813;" fill="#FEFFDD"/><text x="391.3971" y="602.5337" fill="#000000" font-size="20.3125" lengthAdjust="spacing" textLength="262.8525" font-family="'Courier New'">Applies per-channel gains</text><text x="391.3971" y="626.1787" fill="#000000" font-size="20.3125" lengthAdjust="spacing" textLength="284.9304" font-family="'Courier New'">(Manual or Auto GrayWorld)</text><rect x="122.8851" y="580.7861" width="227.887" height="53.0762" fill="#F1F1F1" style="stroke:#181818;stroke-width:0.7813;" rx="19.5313" ry="19.5313"/><text x="138.5101" y="613.8153" fill="#000000" font-size="18.75" lengthAdjust="spacing" textLength="196.637" font-family="'Courier New'">WhiteBalance«RAW»</text><rect x="42.8665" y="673.1567" width="677.7252" height="138.147" fill="none" style="stroke:#000000;stroke-width:2.3438;"/><path d="M167.4927,673.1567 L167.4927,687.6831 L151.8677,703.3081 L42.8665,703.3081" style="stroke:#000000;stroke-width:2.3438;" fill="none"/><text x="47.554" y="695.0241" fill="#000000" font-size="21.875" lengthAdjust="spacing" textLength="109.0012" font-family="'Courier New'">Transition</text><path d="M446.4157,729.6387 L446.4157,754.8462 L415.1657,761.0962 L446.4157,767.3462 L446.4157,792.5537 A0,0 0 0 0 446.4157,792.5537 L704.9667,792.5537 A0,0 0 0 0 704.9667,792.5537 L704.9667,745.2637 L689.3417,729.6387 L446.4157,729.6387 A0,0 0 0 0 446.4157,729.6387" style="stroke:#181818;stroke-width:0.7813;" fill="#FEFFDD"/><path d="M689.3417,729.6387 L689.3417,745.2637 L704.9667,745.2637 L689.3417,729.6387" style="stroke:#181818;stroke-width:0.7813;" fill="#FEFFDD"/><text x="455.7907" y="756.3057" fill="#000000" font-size="20.3125" lengthAdjust="spacing" textLength="213.1424" font-family="'Courier New'">Bilinear interpolation</text><text x="455.7907" y="779.9507" fill="#000000" font-size="20.3125" lengthAdjust="spacing" textLength="225.7385" font-family="'Courier New'">(Bayer -> Linear RGB)</text><rect x="58.4915" y="734.5581" width="356.6742" height="53.0762" fill="#F1F1F1" style="stroke:#181818;stroke-width:0.7813;" rx="19.5313" ry="19.5313"/><text x="74.1165" y="767.5873" fill="#000000" font-size="18.75" lengthAdjust="spacing" textLength="325.4242" font-family="'Courier New'">Demosaic (Optimized)«Transition»</text><rect x="71.0327" y="826.9287" width="623.5153" height="138.147" fill="none" style="stroke:#000000;stroke-width:2.3438;"/><path d="M300.5905,826.9287 L300.5905,841.4551 L284.9655,857.0801 L71.0327,857.0801" style="stroke:#000000;stroke-width:2.3438;" fill="none"/><text x="75.7202" y="848.7961" fill="#000000" font-size="21.875" lengthAdjust="spacing" textLength="213.9328" font-family="'Courier New'">Linear RGB Domain</text><path d="M418.2495,883.4106 L418.2495,908.6182 L386.9995,914.8682 L418.2495,921.1182 L418.2495,946.3257 A0,0 0 0 0 418.2495,946.3257 L678.923,946.3257 A0,0 0 0 0 678.923,946.3257 L678.923,899.0356 L663.298,883.4106 L418.2495,883.4106 A0,0 0 0 0 418.2495,883.4106" style="stroke:#181818;stroke-width:0.7813;" fill="#FEFFDD"/><path d="M663.298,883.4106 L663.298,899.0356 L678.923,899.0356 L663.298,883.4106" style="stroke:#181818;stroke-width:0.7813;" fill="#FEFFDD"/><text x="427.6245" y="910.0777" fill="#000000" font-size="20.3125" lengthAdjust="spacing" textLength="227.861" font-family="'Courier New'">3x3 matrix conversion</text><text x="427.6245" y="933.7227" fill="#000000" font-size="20.3125" lengthAdjust="spacing" textLength="227.3552" font-family="'Courier New'">(Sensor RGB -> sRGB)</text><rect x="86.6577" y="888.3301" width="300.3418" height="53.0762" fill="#F1F1F1" style="stroke:#181818;stroke-width:0.7813;" rx="19.5313" ry="19.5313"/><text x="102.2827" y="921.3593" fill="#000000" font-size="18.75" lengthAdjust="spacing" textLength="269.0918" font-family="'Courier New'">ColorCorrectionMatrix«RGB»</text><rect x="25" y="980.7007" width="740.1878" height="227.3926" fill="none" style="stroke:#000000;stroke-width:2.3438;"/><path d="M358.902,980.7007 L358.902,995.2271 L343.277,1010.8521 L25,1010.8521" style="stroke:#000000;stroke-width:2.3438;" fill="none"/><text x="29.6875" y="1002.5681" fill="#000000" font-size="21.875" lengthAdjust="spacing" textLength="318.277" font-family="'Courier New'">Non-Linear &amp; Output Domain</text><path d="M464.2822,1037.1826 L464.2822,1062.3901 L433.0322,1068.6401 L464.2822,1074.8901 L464.2822,1100.0977 A0,0 0 0 0 464.2822,1100.0977 L749.5628,1100.0977 A0,0 0 0 0 749.5628,1100.0977 L749.5628,1052.8076 L733.9378,1037.1826 L464.2822,1037.1826 A0,0 0 0 0 464.2822,1037.1826" style="stroke:#181818;stroke-width:0.7813;" fill="#FEFFDD"/><path d="M733.9378,1037.1826 L733.9378,1052.8076 L749.5628,1052.8076 L733.9378,1037.1826" style="stroke:#181818;stroke-width:0.7813;" fill="#FEFFDD"/><text x="473.6572" y="1063.8496" fill="#000000" font-size="20.3125" lengthAdjust="spacing" textLength="252.4681" font-family="'Courier New'">Non-linear gamma curve</text><text x="473.6572" y="1087.4947" fill="#000000" font-size="20.3125" lengthAdjust="spacing" textLength="157.3723" font-family="'Courier New'">(float mapping)</text><rect x="40.625" y="1042.1021" width="392.4072" height="53.0762" fill="#F1F1F1" style="stroke:#181818;stroke-width:0.7813;" rx="19.5313" ry="19.5313"/><text x="56.25" y="1075.1312" fill="#000000" font-size="18.75" lengthAdjust="spacing" textLength="361.1572" font-family="'Courier New'">GammaCorrection (sRGB)«NonLinear»</text><path d="M397.5494,1126.4282 L397.5494,1151.6357 L366.2994,1157.8857 L397.5494,1164.1357 L397.5494,1189.3433 A0,0 0 0 0 397.5494,1189.3433 L631.6322,1189.3433 A0,0 0 0 0 631.6322,1189.3433 L631.6322,1142.0532 L616.0072,1126.4282 L397.5494,1126.4282 A0,0 0 0 0 397.5494,1126.4282" style="stroke:#181818;stroke-width:0.7813;" fill="#FEFFDD"/><path d="M616.0072,1126.4282 L616.0072,1142.0532 L631.6322,1142.0532 L616.0072,1126.4282" style="stroke:#181818;stroke-width:0.7813;" fill="#FEFFDD"/><text x="406.9244" y="1153.0952" fill="#000000" font-size="20.3125" lengthAdjust="spacing" textLength="188.8824" font-family="'Courier New'">Scales and clamps</text><text x="406.9244" y="1176.7403" fill="#000000" font-size="20.3125" lengthAdjust="spacing" textLength="201.2703" font-family="'Courier New'">(float -> uint8 RGB)</text><rect x="107.3578" y="1131.3477" width="258.9417" height="53.0762" fill="#F1F1F1" style="stroke:#181818;stroke-width:0.7813;" rx="19.5313" ry="19.5313"/><text x="122.9828" y="1164.3768" fill="#000000" font-size="18.75" lengthAdjust="spacing" textLength="227.6917" font-family="'Courier New'">OutputPack«NonLinear»</text><ellipse cx="236.8286" cy="1256.5308" rx="17.1875" ry="17.1875" fill="none" style="stroke:#222222;stroke-width:1.5625;"/><ellipse cx="236.8286" cy="1256.5308" rx="9.375" ry="9.375" fill="#222222" style="stroke:#222222;stroke-width:1.5625;"/><line x1="236.8286" y1="276.8799" x2="236.8286" y2="313.0493" style="stroke:#181818;stroke-width:1.5625;"/><polygon points="230.5786,297.4243,236.8286,313.0493,243.0786,297.4243,236.8286,303.6743" fill="#181818" style="stroke:#181818;stroke-width:1.5625;stroke-linejoin:miter;stroke-miterlimit:10;"/><line x1="236.8286" y1="366.1255" x2="236.8286" y2="402.2949" style="stroke:#181818;stroke-width:1.5625;"/><polygon points="230.5786,386.6699,236.8286,402.2949,243.0786,386.6699,236.8286,392.9199" fill="#181818" style="stroke:#181818;stroke-width:1.5625;stroke-linejoin:miter;stroke-miterlimit:10;"/><line x1="236.8286" y1="455.3711" x2="236.8286" y2="491.5405" style="stroke:#181818;stroke-width:1.5625;"/><polygon points="230.5786,475.9155,236.8286,491.5405,243.0786,475.9155,236.8286,482.1655" fill="#181818" style="stroke:#181818;stroke-width:1.5625;stroke-linejoin:miter;stroke-miterlimit:10;"/><line x1="236.8286" y1="544.6167" x2="236.8286" y2="580.7861" style="stroke:#181818;stroke-width:1.5625;"/><polygon points="230.5786,565.1611,236.8286,580.7861,243.0786,565.1611,236.8286,571.4111" fill="#181818" style="stroke:#181818;stroke-width:1.5625;stroke-linejoin:miter;stroke-miterlimit:10;"/><line x1="236.8286" y1="146.7773" x2="236.8286" y2="223.8037" style="stroke:#181818;stroke-width:1.5625;"/><polygon points="230.5786,208.1787,236.8286,223.8037,243.0786,208.1787,236.8286,214.4287" fill="#181818" style="stroke:#181818;stroke-width:1.5625;stroke-linejoin:miter;stroke-miterlimit:10;"/><line x1="236.8286" y1="633.8623" x2="236.8286" y2="734.5581" style="stroke:#181818;stroke-width:1.5625;"/><polygon points="230.5786,718.9331,236.8286,734.5581,243.0786,718.9331,236.8286,725.1831" fill="#181818" style="stroke:#181818;stroke-width:1.5625;stroke-linejoin:miter;stroke-miterlimit:10;"/><line x1="236.8286" y1="787.6343" x2="236.8286" y2="888.3301" style="stroke:#181818;stroke-width:1.5625;"/><polygon points="230.5786,872.7051,236.8286,888.3301,243.0786,872.7051,236.8286,878.9551" fill="#181818" style="stroke:#181818;stroke-width:1.5625;stroke-linejoin:miter;stroke-miterlimit:10;"/><line x1="236.8286" y1="1095.1782" x2="236.8286" y2="1131.3477" style="stroke:#181818;stroke-width:1.5625;"/><polygon points="230.5786,1115.7227,236.8286,1131.3477,243.0786,1115.7227,236.8286,1121.9727" fill="#181818" style="stroke:#181818;stroke-width:1.5625;stroke-linejoin:miter;stroke-miterlimit:10;"/><line x1="236.8286" y1="941.4063" x2="236.8286" y2="1042.1021" style="stroke:#181818;stroke-width:1.5625;"/><polygon points="230.5786,1026.4771,236.8286,1042.1021,243.0786,1026.4771,236.8286,1032.7271" fill="#181818" style="stroke:#181818;stroke-width:1.5625;stroke-linejoin:miter;stroke-miterlimit:10;"/><line x1="236.8286" y1="1184.4238" x2="236.8286" y2="1239.3433" style="stroke:#181818;stroke-width:1.5625;"/><polygon points="230.5786,1223.7183,236.8286,1239.3433,243.0786,1223.7183,236.8286,1229.9683" fill="#181818" style="stroke:#181818;stroke-width:1.5625;stroke-linejoin:miter;stroke-miterlimit:10;"/><?plantuml-src ZLHTJzj047pFhrYbKfL8XUP3G4eHKfp422b0H42yyBBOYtFYV7UwEoUaLVzxrtQQE1zKFCNopioETsVZteGoQ3656QfuOONtfE0LfQEQMzTIhNGqipgblPB1w0qJclgb9B0K-KhDpJ3M2w6IFLPChvX97shbRv5LwmETMK4MRcbHh-0igZT71ZgjAja8Q9-qQfLN67an5tu9lsi00LjAhCvKFD1IsukB-_xJvILy6RN2ix2V0xIDoMuNMwrUjnSUOZ-m2IUyq2h7XM4u79tjYknWWa6hCppev2eeHKR1QBJdf2mEJZkzJkyG-rQhiL24jj3eZax2arsDBSXflntywDV-r6fUU5xFu77OX-lf12R2a6GOX58leXbQpyFqnG_FqnSV0dMU30nrYa918y0bRsSGzflrOiO0v_UuU5Jv-bSp_5cyLjfp3aGoy-TGbbsH4Og1KS-gGSV9yJUukPvSjrjmT0cPKBvzsYp8fN0W6J-cESc1jdcasCs7FG9qvQUuxCLRBC3S9PAO6l0QMbNb8M4y4U-V4hwdLC_9mKpxxp7pmEH4zwmoboTwfbETa2ATEL34b1TjNQNLc9IRSluP-ubc0vqQ9g3dXf8VO2uIHTup-r_3n8eOneyFbHvFC-4fG8ageW-b-yP8mRA6x16lMYcIaF1E-KiQDwWobA0jz3EUrPN5vPEsCcxccQaaOHFlzVQ7F1w78eB6dV4Y5RyeRcxVmO5T2Lba4tZbP8sMkDfMcIuEGvbTu4lOjR2fh3AvTb8aVpFZ6_HMlA-kQTz3zxqBQG61IAivMLTQcFBKTQdFFjm11tnQHoiNN-4kyoRpkrQkC4rnOmKQXSxMLUuxodLNSqboFaIPdHDRUfKQFPirXlTVZN7PV5AStd-bfn5ANZt_iqDn46wjkZgytdhKpclp5m00?></g></svg>